<svg width="32" height="31" viewBox="0 0 32 31" fill="none" xmlns="http://www.w3.org/2000/svg">
<path d="M23.7877 12.8728H8.34021C7.25888 12.8728 6.34491 13.5422 5.95872 14.4819L20.2605 17.9834C20.6596 18.0863 21.0844 17.9834 21.3934 17.7259L25.886 13.967C25.4097 13.3105 24.6502 12.8728 23.7877 12.8728ZM23.7877 7.72363H8.34021C6.92419 7.72363 5.76562 8.8822 5.76562 10.2982V11.0062C6.52513 10.5685 7.40049 10.2982 8.34021 10.2982H23.7877C24.7274 10.2982 25.6028 10.5685 26.3623 11.0062V10.2982C26.3623 8.8822 25.2037 7.72363 23.7877 7.72363Z" fill="#508F8C"/>
<path d="M23.7876 5.14917H8.34009C5.49517 5.14917 3.19092 7.45342 3.19092 10.2983V20.5967C3.19092 23.4416 5.49517 25.7458 8.34009 25.7458H23.7876C26.6325 25.7458 28.9368 23.4416 28.9368 20.5967V10.2983C28.9368 7.45342 26.6325 5.14917 23.7876 5.14917ZM21.3932 17.726C21.0843 17.9835 20.6595 18.0865 20.2604 17.9835L5.9586 14.482C6.34478 13.5423 7.25876 12.8729 8.34009 12.8729H23.7876C24.6501 12.8729 25.4096 13.3106 25.8859 13.9543L21.3932 17.726ZM26.3622 11.0064C25.6027 10.5687 24.7273 10.2983 23.7876 10.2983H8.34009C7.40036 10.2983 6.52501 10.5687 5.7655 11.0064V10.2983C5.7655 8.88232 6.92407 7.72375 8.34009 7.72375H23.7876C25.2036 7.72375 26.3622 8.88232 26.3622 10.2983V11.0064Z" fill="#081222"/>
</svg>
