<svg width="54" height="54" viewBox="0 0 54 54" fill="none" xmlns="http://www.w3.org/2000/svg">
<path d="M40.5 22.5H13.5C11.61 22.5 10.0125 23.67 9.3375 25.3125L34.335 31.4325C35.0325 31.6125 35.775 31.4325 36.315 30.9825L44.1675 24.4125C43.335 23.265 42.0075 22.5 40.5 22.5ZM40.5 13.5H13.5C11.025 13.5 9 15.525 9 18V19.2375C10.3275 18.4725 11.8575 18 13.5 18H40.5C42.1425 18 43.6725 18.4725 45 19.2375V18C45 15.525 42.975 13.5 40.5 13.5Z" fill="#508F8C"/>
<path d="M40.5 9H13.5C8.5275 9 4.5 13.0275 4.5 18V36C4.5 40.9725 8.5275 45 13.5 45H40.5C45.4725 45 49.5 40.9725 49.5 36V18C49.5 13.0275 45.4725 9 40.5 9ZM36.315 30.9825C35.775 31.4325 35.0325 31.6125 34.335 31.4325L9.3375 25.3125C10.0125 23.67 11.61 22.5 13.5 22.5H40.5C42.0075 22.5 43.335 23.265 44.1675 24.39L36.315 30.9825ZM45 19.2375C43.6725 18.4725 42.1425 18 40.5 18H13.5C11.8575 18 10.3275 18.4725 9 19.2375V18C9 15.525 11.025 13.5 13.5 13.5H40.5C42.975 13.5 45 15.525 45 18V19.2375Z" fill="#081222"/>
</svg>
