<svg viewBox="0 0 32 32" xmlns="http://www.w3.org/2000/svg">
<path d="M32 32h-32v-32h32v32zM24.842 9.825c-1.081 0-1.965 0.926-1.965 2.058 0 0.185 0.019 0.36 0.068 0.525l-3.488 3.664c-0.157-0.051-0.334-0.072-0.511-0.072s-0.354 0.021-0.511 0.072l-2.506-2.625c0.049-0.165 0.069-0.35 0.069-0.535-0-1.132-0.884-2.058-1.965-2.058s-1.965 0.926-1.965 2.058c0 0.185 0.020 0.371 0.069 0.535l-4.48 4.683c-0.157-0.051-0.324-0.072-0.501-0.072-1.081 0-1.965 0.926-1.965 2.058s0.884 2.058 1.965 2.058 1.965-0.926 1.965-2.058c0-0.185-0.019-0.36-0.068-0.525l4.47-4.693c0.157 0.051 0.335 0.072 0.511 0.072s0.354-0.020 0.511-0.072l2.505 2.624c-0.049 0.165-0.068 0.35-0.068 0.535 0 1.132 0.884 2.058 1.965 2.058s1.965-0.926 1.965-2.058c0-0.185-0.019-0.371-0.068-0.535l3.498-3.654c0.157 0.051 0.324 0.072 0.501 0.072 1.081 0 1.965-0.926 1.965-2.058s-0.884-2.058-1.965-2.058z"></path>
</svg>