<svg aria-hidden="true" style="position: absolute; width: 0; height: 0; overflow: hidden;" version="1.1" xmlns="http://www.w3.org/2000/svg" xmlns:xlink="http://www.w3.org/1999/xlink">
<defs>
<symbol id="icon-home" viewBox="0 0 32 32">
<path d="M26.947 0c2.79 0 5.053 2.262 5.053 5.053v21.895c0 2.79-2.262 5.053-5.053 5.053h-21.895c-2.791 0-5.053-2.262-5.053-5.053v-21.895c0-2.791 2.262-5.053 5.053-5.053h21.895zM4.211 15.686h3.452v9.203h5.755v-6.902h4.604v6.902h5.754v-9.203h3.452l-11.508-10.353-11.509 10.353z"></path>
</symbol>
<symbol id="icon-graph" viewBox="0 0 32 32">
<path d="M26.947 0c2.79 0 5.053 2.262 5.053 5.053v21.895c0 2.79-2.262 5.053-5.053 5.053h-21.895c-2.791 0-5.053-2.262-5.053-5.053v-21.895c0-2.791 2.262-5.053 5.053-5.053h21.895zM24.842 9.825c-1.081 0-1.965 0.926-1.965 2.058 0 0.185 0.019 0.36 0.068 0.525l-3.488 3.664c-0.157-0.051-0.334-0.072-0.511-0.072s-0.354 0.021-0.511 0.072l-2.506-2.625c0.049-0.165 0.069-0.35 0.069-0.535-0-1.132-0.884-2.058-1.965-2.058s-1.965 0.926-1.965 2.058c0 0.185 0.020 0.371 0.069 0.535l-4.48 4.683c-0.157-0.051-0.324-0.072-0.501-0.072-1.081 0-1.965 0.926-1.965 2.058s0.884 2.058 1.965 2.058 1.965-0.926 1.965-2.058c0-0.185-0.019-0.36-0.068-0.525l4.47-4.693c0.157 0.051 0.335 0.072 0.511 0.072s0.354-0.020 0.511-0.072l2.505 2.624c-0.049 0.165-0.068 0.35-0.068 0.535 0 1.132 0.884 2.058 1.965 2.058s1.965-0.926 1.965-2.058c0-0.185-0.019-0.371-0.068-0.535l3.498-3.654c0.157 0.051 0.324 0.072 0.501 0.072 1.081 0 1.965-0.926 1.965-2.058s-0.884-2.058-1.965-2.058z"></path>
</symbol>
<symbol id="icon-dollar" viewBox="0 0 32 32">
<path d="M26.947 0c2.79 0 5.053 2.262 5.053 5.053v21.895c0 2.79-2.262 5.053-5.053 5.053h-21.895c-2.791 0-5.053-2.262-5.053-5.053v-21.895c0-2.791 2.262-5.053 5.053-5.053h21.895zM14.522 9.374c-2.033 0.44-3.667 1.761-3.667 3.783 0 2.42 2.001 3.625 4.924 4.327 2.62 0.629 3.144 1.551 3.144 2.525-0 0.723-0.514 1.875-2.829 1.875-2.158 0-3.007-0.964-3.123-2.2h-2.305c0.126 2.294 1.844 3.584 3.855 4.013v2.273h3.144v-2.252c2.043-0.388 3.667-1.572 3.667-3.72 0-2.976-2.546-3.992-4.924-4.61s-3.144-1.258-3.144-2.253c0-1.142 1.059-1.938 2.83-1.938 1.865 0 2.556 0.891 2.619 2.201h2.316c-0.073-1.802-1.174-3.458-3.364-3.993v-2.294h-3.144v2.263z"></path>
</symbol>
</defs>
</svg>
