<svg viewBox="0 0 32 32" xmlns="http://www.w3.org/2000/svg">
  <defs>
    <linearGradient id="naviagtion-icon-gradient" x1="0%" y1="0%" x2="0%" y2="100%">
      <stop offset="0%" stop-color="#294045" />
      <stop offset="100%" stop-color="#1e2f33" />
    </linearGradient>
  </defs>
<path d="M32 32h-32v-32h32v32zM14.522 9.374c-2.033 0.44-3.667 1.761-3.667 3.783 0 2.42 2.001 3.625 4.924 4.327 2.62 0.629 3.144 1.551 3.144 2.525-0 0.723-0.514 1.875-2.829 1.875-2.158 0-3.007-0.964-3.123-2.2h-2.305c0.126 2.294 1.844 3.584 3.855 4.013v2.273h3.144v-2.252c2.043-0.388 3.667-1.572 3.667-3.72 0-2.976-2.546-3.992-4.924-4.61s-3.144-1.258-3.144-2.253c0-1.142 1.059-1.938 2.83-1.938 1.865 0 2.556 0.891 2.619 2.201h2.316c-0.073-1.802-1.174-3.458-3.364-3.993v-2.294h-3.144v2.263z"></path>
</svg>
