<svg width="14" height="14" viewBox="0 0 14 14" fill="none" xmlns="http://www.w3.org/2000/svg">
<g clip-path="url(#clip0_13004_1082)">
<path d="M10.5002 5.83343L8.16685 3.5001M1.4585 12.5418L3.43271 12.3224C3.67391 12.2956 3.79451 12.2822 3.90724 12.2457C4.00725 12.2133 4.10242 12.1676 4.19018 12.1097C4.28909 12.0445 4.3749 11.9587 4.5465 11.7871L12.2502 4.08343C12.8945 3.4391 12.8945 2.39443 12.2502 1.75009C11.6058 1.10576 10.5612 1.10576 9.91685 1.75009L2.21317 9.45375C2.04156 9.62536 1.95576 9.71116 1.89053 9.81008C1.83267 9.89783 1.78692 9.99301 1.75455 10.093C1.71805 10.2057 1.70465 10.3263 1.67785 10.5675L1.4585 12.5418Z" stroke="#FCFCFC" stroke-width="1.2" stroke-linecap="round" stroke-linejoin="round"/>
</g>
<defs>
<clipPath id="clip0_13004_1082">
<rect width="14" height="14" fill="white"/>
</clipPath>
</defs>
</svg>
