<svg width="182" height="94" viewBox="0 0 182 94" fill="none" xmlns="http://www.w3.org/2000/svg">
<path d="M104.5 22.5H77.5C75.61 22.5 74.0125 23.67 73.3375 25.3125L98.335 31.4325C99.0325 31.6125 99.775 31.4325 100.315 30.9825L108.167 24.4125C107.335 23.265 106.007 22.5 104.5 22.5ZM104.5 13.5H77.5C75.025 13.5 73 15.525 73 18V19.2375C74.3275 18.4725 75.8575 18 77.5 18H104.5C106.143 18 107.673 18.4725 109 19.2375V18C109 15.525 106.975 13.5 104.5 13.5Z" fill="#508F8C"/>
<path d="M104.5 9H77.5C72.5275 9 68.5 13.0275 68.5 18V36C68.5 40.9725 72.5275 45 77.5 45H104.5C109.472 45 113.5 40.9725 113.5 36V18C113.5 13.0275 109.472 9 104.5 9ZM100.315 30.9825C99.775 31.4325 99.0325 31.6125 98.335 31.4325L73.3375 25.3125C74.0125 23.67 75.61 22.5 77.5 22.5H104.5C106.007 22.5 107.335 23.265 108.167 24.39L100.315 30.9825ZM109 19.2375C107.673 18.4725 106.143 18 104.5 18H77.5C75.8575 18 74.3275 18.4725 73 19.2375V18C73 15.525 75.025 13.5 77.5 13.5H104.5C106.975 13.5 109 15.525 109 18V19.2375Z" fill="#081222"/>
<path d="M42.062 85.21C40.522 85.21 39.142 84.96 37.922 84.46C36.702 83.96 35.722 83.22 34.982 82.24C34.262 81.26 33.882 80.08 33.842 78.7H39.302C39.382 79.48 39.652 80.08 40.112 80.5C40.572 80.9 41.172 81.1 41.912 81.1C42.672 81.1 43.272 80.93 43.712 80.59C44.152 80.23 44.372 79.74 44.372 79.12C44.372 78.6 44.192 78.17 43.832 77.83C43.492 77.49 43.062 77.21 42.542 76.99C42.042 76.77 41.322 76.52 40.382 76.24C39.022 75.82 37.912 75.4 37.052 74.98C36.192 74.56 35.452 73.94 34.832 73.12C34.212 72.3 33.902 71.23 33.902 69.91C33.902 67.95 34.612 66.42 36.032 65.32C37.452 64.2 39.302 63.64 41.582 63.64C43.902 63.64 45.772 64.2 47.192 65.32C48.612 66.42 49.372 67.96 49.472 69.94H43.922C43.882 69.26 43.632 68.73 43.172 68.35C42.712 67.95 42.122 67.75 41.402 67.75C40.782 67.75 40.282 67.92 39.902 68.26C39.522 68.58 39.332 69.05 39.332 69.67C39.332 70.35 39.652 70.88 40.292 71.26C40.932 71.64 41.932 72.05 43.292 72.49C44.652 72.95 45.752 73.39 46.592 73.81C47.452 74.23 48.192 74.84 48.812 75.64C49.432 76.44 49.742 77.47 49.742 78.73C49.742 79.93 49.432 81.02 48.812 82C48.212 82.98 47.332 83.76 46.172 84.34C45.012 84.92 43.642 85.21 42.062 85.21ZM58.0291 70.63C58.5291 69.85 59.2191 69.22 60.0991 68.74C60.9791 68.26 62.0091 68.02 63.1891 68.02C64.5691 68.02 65.8191 68.37 66.9391 69.07C68.0591 69.77 68.9391 70.77 69.5791 72.07C70.2391 73.37 70.5691 74.88 70.5691 76.6C70.5691 78.32 70.2391 79.84 69.5791 81.16C68.9391 82.46 68.0591 83.47 66.9391 84.19C65.8191 84.89 64.5691 85.24 63.1891 85.24C62.0291 85.24 60.9991 85 60.0991 84.52C59.2191 84.04 58.5291 83.42 58.0291 82.66V92.98H52.8991V68.26H58.0291V70.63ZM65.3491 76.6C65.3491 75.32 64.9891 74.32 64.2691 73.6C63.5691 72.86 62.6991 72.49 61.6591 72.49C60.6391 72.49 59.7691 72.86 59.0491 73.6C58.3491 74.34 57.9991 75.35 57.9991 76.63C57.9991 77.91 58.3491 78.92 59.0491 79.66C59.7691 80.4 60.6391 80.77 61.6591 80.77C62.6791 80.77 63.5491 80.4 64.2691 79.66C64.9891 78.9 65.3491 77.88 65.3491 76.6ZM89.0404 76.36C89.0404 76.84 89.0104 77.34 88.9504 77.86H77.3404C77.4204 78.9 77.7504 79.7 78.3304 80.26C78.9304 80.8 79.6604 81.07 80.5204 81.07C81.8004 81.07 82.6904 80.53 83.1904 79.45H88.6504C88.3704 80.55 87.8604 81.54 87.1204 82.42C86.4004 83.3 85.4904 83.99 84.3904 84.49C83.2904 84.99 82.0604 85.24 80.7004 85.24C79.0604 85.24 77.6004 84.89 76.3204 84.19C75.0404 83.49 74.0404 82.49 73.3204 81.19C72.6004 79.89 72.2404 78.37 72.2404 76.63C72.2404 74.89 72.5904 73.37 73.2904 72.07C74.0104 70.77 75.0104 69.77 76.2904 69.07C77.5704 68.37 79.0404 68.02 80.7004 68.02C82.3204 68.02 83.7604 68.36 85.0204 69.04C86.2804 69.72 87.2604 70.69 87.9604 71.95C88.6804 73.21 89.0404 74.68 89.0404 76.36ZM83.7904 75.01C83.7904 74.13 83.4904 73.43 82.8904 72.91C82.2904 72.39 81.5404 72.13 80.6404 72.13C79.7804 72.13 79.0504 72.38 78.4504 72.88C77.8704 73.38 77.5104 74.09 77.3704 75.01H83.7904ZM101.947 68.08C103.907 68.08 105.467 68.72 106.627 70C107.807 71.26 108.397 73 108.397 75.22V85H103.297V75.91C103.297 74.79 103.007 73.92 102.427 73.3C101.847 72.68 101.067 72.37 100.087 72.37C99.1067 72.37 98.3267 72.68 97.7467 73.3C97.1667 73.92 96.8767 74.79 96.8767 75.91V85H91.7467V68.26H96.8767V70.48C97.3967 69.74 98.0967 69.16 98.9767 68.74C99.8567 68.3 100.847 68.08 101.947 68.08ZM110.942 76.6C110.942 74.88 111.262 73.37 111.902 72.07C112.562 70.77 113.452 69.77 114.572 69.07C115.692 68.37 116.942 68.02 118.322 68.02C119.422 68.02 120.422 68.25 121.322 68.71C122.242 69.17 122.962 69.79 123.482 70.57V62.8H128.612V85H123.482V82.6C123.002 83.4 122.312 84.04 121.412 84.52C120.532 85 119.502 85.24 118.322 85.24C116.942 85.24 115.692 84.89 114.572 84.19C113.452 83.47 112.562 82.46 111.902 81.16C111.262 79.84 110.942 78.32 110.942 76.6ZM123.482 76.63C123.482 75.35 123.122 74.34 122.402 73.6C121.702 72.86 120.842 72.49 119.822 72.49C118.802 72.49 117.932 72.86 117.212 73.6C116.512 74.32 116.162 75.32 116.162 76.6C116.162 77.88 116.512 78.9 117.212 79.66C117.932 80.4 118.802 80.77 119.822 80.77C120.842 80.77 121.702 80.4 122.402 79.66C123.122 78.92 123.482 77.91 123.482 76.63ZM149.423 68.26L138.923 92.95H133.403L137.243 84.43L130.433 68.26H136.163L140.033 78.73L143.873 68.26H149.423Z" fill="#081222"/>
</svg>
